<?xml version="1.0" encoding="UTF-8"?>
<svg id="Layer_2" data-name="Layer 2" xmlns="http://www.w3.org/2000/svg" xmlns:xlink="http://www.w3.org/1999/xlink" viewBox="0 0 893.87 753.42">
  <defs>
    <style>
      .cls-1 {
        fill: url(#linear-gradient);
      }

      .cls-1, .cls-2, .cls-3, .cls-4, .cls-5, .cls-6, .cls-7, .cls-8, .cls-9, .cls-10, .cls-11 {
        stroke-width: 0px;
      }

      .cls-2 {
        fill: #e9e3dc;
      }

      .cls-3 {
        fill: url(#linear-gradient-6);
      }

      .cls-4 {
        fill: url(#linear-gradient-5);
      }

      .cls-5 {
        fill: #413f3e;
      }

      .cls-6 {
        fill: url(#linear-gradient-2);
      }

      .cls-7 {
        fill: url(#linear-gradient-7);
      }

      .cls-8 {
        fill: url(#linear-gradient-3);
      }

      .cls-9 {
        fill: url(#radial-gradient);
      }

      .cls-10 {
        fill: url(#linear-gradient-4);
      }

      .cls-11 {
        fill: #f28c40;
      }
    </style>
    <radialGradient id="radial-gradient" cx="373.08" cy="565.65" fx="310.43" fy="565.65" r="438.94" gradientTransform="translate(-44.48 506.12) scale(1.32 .1)" gradientUnits="userSpaceOnUse">
      <stop offset="0" stop-color="#231f20" stop-opacity=".5"/>
      <stop offset=".53" stop-color="#747272" stop-opacity=".05"/>
      <stop offset=".57" stop-color="rgba(138, 136, 136, .04)" stop-opacity=".04"/>
      <stop offset="1" stop-color="#fff" stop-opacity="0"/>
    </radialGradient>
    <linearGradient id="linear-gradient" x1="366.14" y1="262.17" x2="313.89" y2="209.92" gradientUnits="userSpaceOnUse">
      <stop offset=".06" stop-color="#fff" stop-opacity="0"/>
      <stop offset=".19" stop-color="rgba(248, 248, 248, .06)" stop-opacity=".06"/>
      <stop offset=".38" stop-color="rgba(228, 228, 228, .21)" stop-opacity=".21"/>
      <stop offset=".61" stop-color="rgba(197, 197, 197, .46)" stop-opacity=".46"/>
      <stop offset=".87" stop-color="rgba(154, 154, 154, .81)" stop-opacity=".81"/>
      <stop offset="1" stop-color="#828282"/>
    </linearGradient>
    <linearGradient id="linear-gradient-2" x1="332.57" y1="383.99" x2="243.56" y2="229.82" gradientTransform="translate(0 -182.95)" gradientUnits="userSpaceOnUse">
      <stop offset=".06" stop-color="#fff" stop-opacity="0"/>
      <stop offset=".09" stop-color="rgba(248, 248, 248, .05)" stop-opacity=".05"/>
      <stop offset=".29" stop-color="rgba(206, 206, 206, .39)" stop-opacity=".39"/>
      <stop offset=".5" stop-color="rgba(173, 173, 173, .66)" stop-opacity=".66"/>
      <stop offset=".68" stop-color="rgba(149, 149, 149, .85)" stop-opacity=".85"/>
      <stop offset=".86" stop-color="rgba(134, 134, 134, .96)" stop-opacity=".96"/>
      <stop offset="1" stop-color="#828282"/>
    </linearGradient>
    <linearGradient id="linear-gradient-3" x1="117.24" y1="-29.85" x2="117.24" y2="-144.75" gradientTransform="translate(329.7 600.19)" gradientUnits="userSpaceOnUse">
      <stop offset=".06" stop-color="#fff" stop-opacity="0"/>
      <stop offset=".52" stop-color="rgba(251, 251, 251, .01)" stop-opacity=".01"/>
      <stop offset=".69" stop-color="rgba(238, 238, 238, .07)" stop-opacity=".07"/>
      <stop offset=".8" stop-color="rgba(215, 215, 215, .16)" stop-opacity=".16"/>
      <stop offset=".9" stop-color="rgba(183, 183, 183, .29)" stop-opacity=".29"/>
      <stop offset=".98" stop-color="rgba(141, 141, 141, .45)" stop-opacity=".45"/>
      <stop offset="1" stop-color="#828282" stop-opacity=".5"/>
    </linearGradient>
    <linearGradient id="linear-gradient-4" x1="417.09" y1="442.35" x2="360.23" y2="442.35" gradientUnits="userSpaceOnUse">
      <stop offset="0" stop-color="#231f20" stop-opacity="0"/>
      <stop offset=".38" stop-color="rgba(36, 31, 32, 0)" stop-opacity="0"/>
      <stop offset=".51" stop-color="rgba(42, 34, 33, .04)" stop-opacity=".04"/>
      <stop offset=".61" stop-color="rgba(52, 40, 34, .08)" stop-opacity=".08"/>
      <stop offset=".69" stop-color="rgba(66, 47, 36, .15)" stop-opacity=".15"/>
      <stop offset=".75" stop-color="rgba(85, 57, 39, .25)" stop-opacity=".25"/>
      <stop offset=".81" stop-color="rgba(109, 70, 43, .36)" stop-opacity=".36"/>
      <stop offset=".87" stop-color="rgba(136, 84, 47, .49)" stop-opacity=".49"/>
      <stop offset=".92" stop-color="rgba(169, 101, 52, .65)" stop-opacity=".65"/>
      <stop offset=".96" stop-color="rgba(204, 120, 58, .82)" stop-opacity=".82"/>
      <stop offset="1" stop-color="#f28c40"/>
    </linearGradient>
    <linearGradient id="linear-gradient-5" x1="390.7" y1="497.72" x2="333.84" y2="497.72" gradientTransform="translate(84.66 -147.23)" gradientUnits="userSpaceOnUse">
      <stop offset="0" stop-color="#231f20" stop-opacity="0"/>
      <stop offset=".31" stop-color="rgba(36, 31, 32, 0)" stop-opacity="0"/>
      <stop offset=".45" stop-color="rgba(43, 35, 33, .04)" stop-opacity=".04"/>
      <stop offset=".56" stop-color="rgba(53, 40, 34, .09)" stop-opacity=".09"/>
      <stop offset=".64" stop-color="rgba(69, 49, 37, .17)" stop-opacity=".17"/>
      <stop offset=".72" stop-color="rgba(89, 59, 40, .26)" stop-opacity=".26"/>
      <stop offset=".79" stop-color="rgba(113, 72, 44, .38)" stop-opacity=".38"/>
      <stop offset=".85" stop-color="rgba(143, 88, 48, .52)" stop-opacity=".52"/>
      <stop offset=".91" stop-color="rgba(177, 106, 54, .69)" stop-opacity=".69"/>
      <stop offset=".97" stop-color="rgba(214, 125, 59, .87)" stop-opacity=".87"/>
      <stop offset="1" stop-color="#f28c40"/>
    </linearGradient>
    <linearGradient id="linear-gradient-6" x1="614.73" y1="47.99" x2="557.87" y2="47.99" gradientTransform="translate(-139.36 485.62)" gradientUnits="userSpaceOnUse">
      <stop offset="0" stop-color="#231f20" stop-opacity="0"/>
      <stop offset=".3" stop-color="rgba(50, 43, 41, .01)" stop-opacity=".01"/>
      <stop offset=".57" stop-color="rgba(97, 81, 71, .06)" stop-opacity=".06"/>
      <stop offset=".83" stop-color="rgba(176, 144, 121, .13)" stop-opacity=".13"/>
      <stop offset="1" stop-color="#f9caa7" stop-opacity=".2"/>
    </linearGradient>
    <linearGradient id="linear-gradient-7" x1="426.87" y1="170.24" x2="748.8" y2="170.24" gradientTransform="translate(889.2 720.95) rotate(-135)" gradientUnits="userSpaceOnUse">
      <stop offset="0" stop-color="#f28c40"/>
      <stop offset="1" stop-color="#ab632b"/>
    </linearGradient>
  </defs>
  <g>
    <rect class="cls-9" y="544.73" width="893.87" height="34.6"/>
    <path class="cls-2" d="M446.94,54.25l-250.79,260.79v222.51c0,13.85,11.23,25.08,25.08,25.08h451.43c13.85,0,25.08-11.23,25.08-25.08v-222.51L446.94,54.25Z"/>
    <rect class="cls-2" x="241.84" y="8.59" width="80.49" height="199.7" rx="24.45" ry="24.45"/>
    <path class="cls-1" d="M452.8,63.99L196.14,321.22v62.31L452.8,126.3c11.65-11.2,30.17-10.84,41.38.81,0,0-29.73-74.32-41.38-63.12Z"/>
    <rect class="cls-6" x="241.84" y="34.06" width="80.49" height="159.09" transform="translate(564.18 227.21) rotate(180)"/>
    <path class="cls-8" d="M221.22,447.72h451.43c13.84,0,25.08,11.24,25.08,25.08v89.83H196.14v-89.83c0-13.84,11.24-25.08,25.08-25.08Z" transform="translate(893.87 1010.35) rotate(180)"/>
    <path class="cls-11" d="M739.95,322.87c11.65-11.2,12.01-29.73.81-41.38L489.28,30.07h0l-20.29-21.09c-11.2-11.65-29.73-12.01-41.38-.81L153.93,280.69c-11.65,11.2-12.01,29.73-.81,41.38h0c11.2,11.65,29.73,12.01,41.38.81l231.51-231.94c11.65-11.2,30.17-10.84,41.38.81l231.18,230.33c11.2,11.65,29.73,12.01,41.38.81h0Z"/>
    <rect class="cls-11" x="360.23" y="322.07" width="173.42" height="240.56"/>
    <rect class="cls-10" x="360.23" y="322.07" width="56.86" height="240.56"/>
    <rect class="cls-4" x="418.51" y="263.79" width="56.86" height="173.42" transform="translate(797.43 -96.44) rotate(90)"/>
    <rect class="cls-3" x="418.51" y="446.9" width="56.86" height="173.42" transform="translate(-86.67 980.54) rotate(-90)"/>
    <path class="cls-7" d="M593.91-30.57h0c16.19,0,29.34,13.15,29.34,29.34v384.44h-58.68V-1.24c0-16.19,13.15-29.34,29.34-29.34Z" transform="translate(1138.55 -118.97) rotate(135)"/>
  </g>
  <g>
    <rect class="cls-5" x="488.66" y="605.37" width="14.78" height="36.66" rx="5.41" ry="5.41"/>
    <path class="cls-5" d="M121.06,632.94v120.38h-17.41l.08-120.39c0-2.85,2.32-5.17,5.17-5.17h6.99c2.86,0,5.17,2.31,5.17,5.17Z"/>
    <path class="cls-5" d="M201.63,665.84c6.06,2.9,11.1,6.57,15.02,11.1s6.91,9.22,8.79,14.25c1.96,4.95,2.9,9.56,2.9,13.74l-.09,48.48h-16.81v-40.37c.43-8.11-.85-14.68-3.67-19.72-2.9-5.04-6.57-8.79-11.18-11.18-4.61-2.3-9.39-3.58-14.34-3.58-6.83-.17-13.06,2.22-18.69,7.17-5.72,5.04-9.05,12.72-10.07,23.3v9.13c.09,3.84.09,8.02.09,12.63s-.09,8.96-.09,12.8v9.82h-16.98v-.26l.09-47.28v-1.19l.07-37.59c0-3.13,2.56-5.67,5.69-5.65l5.59.03c3.12.02,5.63,2.55,5.63,5.66v4.35c7.94-6.49,16.73-9.82,26.37-10.07,8.36.09,15.53,1.62,21.68,4.44Z"/>
    <path class="cls-5" d="M243.71,727.54v-.26.26ZM340.5,661.4c-5.21,0-10.58,1.11-16.3,3.24-5.63,2.05-10.16,4.95-13.49,8.62-3.33-3.67-7.77-6.57-13.23-8.71-5.55-2.05-10.84-3.16-16.05-3.16-7,0-13.57,1.96-19.63,5.72h0c0-3.12-2.52-5.65-5.63-5.66l-5.59-.03c-3.13-.02-5.68,2.51-5.69,5.65l-.07,27.87v20.66c-.09,7.6-.09,15.11-.09,22.36v15.45h16.98l.09-58.21c.26-2.13,1.37-4.52,3.33-7.08,1.96-2.65,4.35-4.87,7.25-6.83,2.99-1.96,5.97-2.9,9.05-2.9,4.78,0,9.3,1.54,13.66,4.78s6.74,7.25,7.17,12.03v8.54c-.09,5.72-.09,13.14-.09,22.19v27.48h16.81c0-1.02,0-4.44.09-10.33v-19.8c0-7.34,0-13.83.09-19.29v-8.79c.34-4.35,2.82-8.28,7.34-11.69,4.61-3.41,9.3-5.12,14-5.12,3.24,0,6.4.77,9.64,2.3,3.16,1.62,5.8,3.76,7.94,6.4s3.24,5.55,3.24,8.79c0,.09,0,2.9-.09,8.54v48.99h16.9c0-12.38,0-23.64.09-33.8v-23.73c0-6.32-1.88-12.12-5.46-17.33-3.67-5.21-8.36-9.39-14.17-12.46-5.72-3.07-11.78-4.69-18.09-4.69Z"/>
    <path class="cls-5" d="M462.55,667.8c7,4.1,12.46,9.64,16.64,16.64,4.1,6.91,6.15,14.6,6.15,23.04s-2.05,16.13-6.15,23.13c-4.18,6.91-9.64,12.46-16.64,16.56-6.91,4.18-14.6,6.23-23.04,6.23s-16.22-2.05-23.13-6.23c-6.91-4.1-12.46-9.64-16.56-16.56-4.18-7-6.23-14.68-6.23-23.13s2.05-16.13,6.23-23.04c4.1-7,9.64-12.55,16.56-16.64s14.68-6.23,23.13-6.23,16.13,2.13,23.04,6.23ZM459.99,727.97c5.63-5.63,8.45-12.46,8.45-20.48s-2.82-14.77-8.45-20.48c-5.72-5.63-12.55-8.45-20.48-8.45s-14.85,2.82-20.48,8.45c-5.72,5.72-8.54,12.55-8.54,20.48s2.82,14.85,8.54,20.48c5.63,5.63,12.46,8.54,20.48,8.54s14.77-2.9,20.48-8.54Z"/>
    <path class="cls-5" d="M535,613.49l-.43,139.83h-16.64l.17-139.83h-.09M518.4,627.77"/>
    <path class="cls-5" d="M640.85,710.82l-57.61-.09c1.02,7.34,4.1,13.49,9.39,18.27,5.38,4.78,11.78,7.34,19.46,7.51,5.38-.09,11.27-1.11,17.5-3.07,6.32-1.88,11.35-4.35,15.36-7.17h.09l5.88,8.62c1.82,2.67,1.05,6.33-1.7,8.02-5.69,3.49-11.1,6.01-16.21,7.6-6.57,2.05-13.57,2.99-21,2.9-12.38-.26-22.87-4.44-31.32-12.46-8.54-7.94-13.31-18.09-14.42-30.3-.09-1.02-.09-2.05-.09-3.16,0-4.87.77-9.39,2.13-13.83,3.07-9.47,8.54-17.07,16.39-22.96,7.85-5.89,16.98-8.88,27.4-9.05,10.41.17,19.55,3.16,27.4,9.05,7.77,5.89,13.23,13.57,16.39,23.04,1.37,4.35,2.05,8.96,2.05,13.83,0,1.02,0,2.13-.09,3.24h-16.98ZM639.32,692.12c-2.48-4.61-5.97-8.28-10.41-11.01s-9.47-4.1-15.02-4.18c-5.55,0-10.58,1.45-15.02,4.18s-7.94,6.4-10.41,10.93l50.87.09Z"/>
    <path class="cls-5" d="M676.02,641.68c-1.79-1.62-2.65-3.58-2.65-5.89s.85-4.35,2.65-5.97,3.93-2.48,6.4-2.48,4.61.85,6.4,2.48,2.65,3.58,2.65,5.97-.85,4.27-2.65,5.89c-1.79,1.71-3.93,2.48-6.4,2.48s-4.61-.77-6.4-2.48ZM678.92,661.48h7.15c2.7,0,4.88,2.19,4.88,4.88l-.08,87.04-16.98-.09.16-86.97c0-2.69,2.19-4.87,4.88-4.87Z"/>
    <path class="cls-5" d="M764.27,702.88c4.69,1.54,8.96,3.33,12.97,5.46,3.93,2.22,7.17,4.95,9.56,8.11,2.39,3.24,3.5,7.25,3.41,11.95-.17,4.18-1.54,8.19-4.27,12.12-2.65,3.93-6.91,7.08-12.8,9.47s-13.66,3.58-23.39,3.41c-7.68-.17-14.17-1.19-19.29-3.07-5.21-1.79-9.39-4.1-12.63-6.66-3.16-2.65-5.63-5.21-7.34-7.85-1.62-2.65-2.82-4.87-3.41-6.66h0c-.45-1.22.27-2.57,1.54-2.87l13.82-3.27c1.04-.25,2.1.3,2.51,1.28l.14.34c.6,1.88,1.79,3.67,3.5,5.46,1.79,1.88,4.44,3.41,8.11,4.69,3.67,1.28,8.79,1.96,15.36,2.13h.17c1.62,0,3.84-.17,6.74-.6,2.99-.43,5.63-1.19,8.11-2.22,2.48-.94,3.84-2.3,4.1-3.93.17-3.76-1.96-6.66-6.49-8.79-4.44-2.13-10.75-4.18-18.95-6.15-4.44-1.19-8.36-2.39-11.61-3.67-3.16-1.37-6.66-2.99-10.24-5.04-8.54-4.69-12.63-11.35-12.38-19.72.26-7.51,3.84-13.66,10.75-18.52,7.6-4.87,16.47-7.17,26.72-7,20.83.51,34.23,8.71,40.12,24.58l.04.1c.44,1.22-.29,2.55-1.55,2.85l-13.82,3.28c-1.05.25-2.12-.31-2.52-1.31l-.16-.39c-.6-1.96-1.71-3.84-3.41-5.72-1.62-1.88-4.44-3.5-8.36-4.78-3.93-1.37-7.77-2.05-11.52-2.13-.51-.09-1.02-.09-1.54-.09-5.38.09-9.3,1.02-11.86,2.82-2.56,1.88-4.01,4.1-4.18,6.74.17,2.82,1.96,5.04,5.46,6.83,3.5,1.79,8.36,3.41,14.68,4.95,4.52,1.11,9.22,2.39,13.91,3.84Z"/>
    <path class="cls-11" d="M577.14,650.21l-45.98-45.98c-2.68-2.68-7.02-2.68-9.69,0l-45.98,45.98c-3.22,3.22-3.61,8.47-.6,11.87,3.28,3.7,8.94,3.83,12.38.38l34.19-34.19c2.68-2.68,7.02-2.68,9.69,0l34.19,34.19c3.44,3.44,9.1,3.32,12.38-.38,3.02-3.41,2.62-8.66-.6-11.87Z"/>
  </g>
</svg>